<?xml version="1.0" encoding="UTF-8" standalone="no"?>
<!-- Svg Vector Icons : http://www.onlinewebfonts.com/icon -->

<svg
   version="1.1"
   x="0px"
   y="0px"
   viewBox="0 0 212.48938 1072.5334"
   enable-background="new 0 0 1000 1000"
   xml:space="preserve"
   id="svg9406"
   sodipodi:docname="compass needle.svg"
   width="212.48938"
   height="1072.5334"
   inkscape:version="1.2 (dc2aeda, 2022-05-15)"
   inkscape:export-filename="../Desktop/compass needle.png"
   inkscape:export-xdpi="96"
   inkscape:export-ydpi="96"
   xmlns:inkscape="http://www.inkscape.org/namespaces/inkscape"
   xmlns:sodipodi="http://sodipodi.sourceforge.net/DTD/sodipodi-0.dtd"
   xmlns="http://www.w3.org/2000/svg"
   xmlns:svg="http://www.w3.org/2000/svg"><defs
   id="defs9410" /><sodipodi:namedview
   id="namedview9408"
   pagecolor="#ffffff"
   bordercolor="#000000"
   borderopacity="0.25"
   inkscape:showpageshadow="2"
   inkscape:pageopacity="0.0"
   inkscape:pagecheckerboard="0"
   inkscape:deskcolor="#d1d1d1"
   showgrid="false"
   inkscape:zoom="0.21669283"
   inkscape:cx="-703.76117"
   inkscape:cy="-34.611205"
   inkscape:window-width="1440"
   inkscape:window-height="819"
   inkscape:window-x="0"
   inkscape:window-y="25"
   inkscape:window-maximized="0"
   inkscape:current-layer="g9402" />
<metadata
   id="metadata9394"> Svg Vector Icons : http://www.onlinewebfonts.com/icon </metadata>
<g
   id="g9404"
   transform="rotate(-23,392.52377,1485.0746)"><g
     transform="matrix(0.1,0,0,-0.1,0,511)"
     id="g9402"><path
       d="M 5793.7,3194.7 C 5029.9,2197 4402.8,1373.2 4398.6,1362.9 c -4.1,-10.3 29,-2.1 74.5,20.7 209.1,107.6 604.4,149 854.8,89 173.9,-41.4 471.9,-194.6 602.3,-310.5 136.6,-122.1 289.8,-337.4 356,-503 l 47.6,-118 58,293.9 c 29,161.5 217.3,1150.8 416,2198.2 198.7,1047.4 366.4,1920.8 370.5,1941.5 4.1,18.6 6.2,35.2 4.1,35.2 -1.9,0.1 -627,-817.5 -1388.7,-1815.2 z"
       id="path9396"
       style="fill:#aa0000" /><path
       d="M 4750.5,1085.5 C 4580.8,1040 4440,957.2 4303.4,818.5 4160.6,675.7 4079.9,520.4 4030.2,307.2 c -68.3,-306.3 43.5,-670.6 277.4,-902.5 637.5,-629.2 1705.6,-184.2 1705.6,710 0,469.9 -320.8,877.6 -770,981.1 -128.4,31.1 -362.3,24.9 -492.7,-10.3 z"
       id="path9398"
       style="fill:#808080" /><path
       d="m 3686.6,-257.8 c -6.2,-22.8 -198.7,-1014.2 -428.5,-2204.4 -227.7,-1190.2 -422.3,-2204.4 -432.6,-2254.1 -10.4,-47.6 -12.4,-80.7 -2.1,-72.4 8.3,10.4 327,428.5 707.9,929.4 378.8,500.9 997.7,1316.4 1374.4,1811.1 376.7,494.7 691.3,912.8 699.6,927.3 12.4,22.8 2.1,20.7 -43.5,-2.1 -130.4,-68.3 -325,-105.6 -554.7,-105.6 -192.5,2.1 -252.5,10.4 -393.3,58 -240.1,82.8 -372.6,165.6 -550.6,341.5 -163.5,165.6 -264.9,318.7 -327,503 -28.9,84.9 -39.3,99.4 -49.6,68.3 z"
       id="path9400"
       style="fill:#000080" /></g></g>
</svg>
